PathFileType	4	(X/Y/Z)	C:/Users/beibeiliu/ov580/test_trc/capture2\sequence.20_training_dense_right.trc
DataRate	CameraRate	NumFrames	NumMarkers	Units	OrigDataRate	OrigDataStartFrame	OrigNumFrames
120	120	15	19	mm	120	127	337
Frame#	Time	ThumbCMC			ThumbMCP			ThumbIP			ThumbTip			IndexMCP			IndexPIP			IndexTip			MiddleMCP			MiddlePIP			MiddleTip			RingMCP			RingPIP			RingTip			PinkyMCP			PinkyPIP			PinkyTip			BackHand1			BackHand2			BackHand3	
		X0	Y0	Z0	X1	Y1	Z1	X2	Y2	Z2	X3	Y3	Z3	X4	Y4	Z4	X5	Y5	Z5	X6	Y6	Z6	X7	Y7	Z7	X8	Y8	Z8	X9	Y9	Z9	X10	Y10	Z10	X11	Y11	Z11	X12	Y12	Z12	X13	Y13	Z13	X14	Y14	Z14	X15	Y15	Z15	X16	Y16	Z16	X17	Y17	Z17	X18	Y18	Z18	
126	1.05	91.1685	108.525	87.4003	81.9691	133.648	67.8053	94.3421	156.387	52.3168	118.696	155.783	41.0322	116.425	175.791	85.5418	123.152	201.234	75.2473	132.288	221.378	66.4377	137.632	179.742	71.9438	139.049	203.426	63.4634	143.837	228.096	52.6512	148.9	170.554	58.161	149.643	191.308	51.0771	153.128	216.679	42.424	155.626	149.111	46.2442	160.422	169.767	36.9432	164.393	193.319	34.145	148.913	122.625	78.1833	149.558	92.2523	85.8655	125.185	118.302	102.171	
127	1.05833	90.6416	107.118	86.2342	85.8149	132.043	65.4986	93.8275	152.641	50.643	120.785	155.878	40.2056	118.787	174.535	81.6986	119.369	201.314	77.2382	128.511	223.612	68.3602	133.852	178.025	74.1085	138.805	203.618	62.7282	141.908	230.673	53.9277	145.261	169.564	60.8235	150.967	194.387	50.7577	153.059	214.964	42.8876	159.045	153.348	47.4156	160.499	173.808	38.8253	167.824	194.662	34.7068	150.204	122.453	75.8923	145.828	90.112	87.9302	124.754	112.965	98.7146	
128	1.06667	87.4493	104.238	85.3368	82.353	128.383	63.7585	95.2536	151.585	49.1993	123.91	156.773	37.9116	115.844	174.655	82.4188	120.375	195.422	74.716	127.76	218.867	66.8642	133.124	174.14	72.3789	135.895	203.025	64.5883	140.62	230.608	53.8004	145.105	170.45	60.6669	149.143	192.986	51.7893	150.268	217.419	44.0941	159.714	151.755	46.2637	160.048	169.471	41.5671	164.096	191.529	36.1697	149.39	122.581	74.9626	149.852	92.0164	87.1675	123.594	111.794	98.135	
129	1.075	90.5924	104.261	81.7488	83.4751	129.182	62.0886	93.1331	152.397	47.1592	120.526	156.401	36.0182	117.589	174.529	78.2429	117.162	195.702	74.1584	126.208	218.162	65.2044	132.327	177.301	71.3093	136.901	201.043	61.3843	137.409	229.765	53.699	144.335	166.683	58.8979	148.571	187.076	50.9163	150.662	215.442	42.5463	154.807	146.725	47.2621	162.739	170.806	36.6866	168.294	192.256	31.0875	147.954	119.836	75.5111	145.579	89.1684	86.9507	121.918	112.895	98.6563	
130	1.08333	89.3536	100.294	80.7026	80.3317	129.457	59.0152	94.6717	150.001	44.8004	119.412	151.698	34.4377	113.281	170.744	76.4965	112.984	194.436	70.9858	125.23	215.537	61.6681	133.261	175.643	65.5138	133.18	200.782	57.8602	135.819	224.603	50.5485	144.327	165.709	55.6096	146.06	189.157	48.6735	147.752	215.2	42.2052	153.165	148.967	45.6148	160.245	165.747	36.5989	166.494	191.739	32.7892	145.267	120.041	75.857	148.39	89.1556	83.2464	121.073	112.454	94.5548	
131	1.09167	88.6515	100.872	77.7381	77.4002	122.141	56.6964	90.6383	148.353	40.0487	116.086	150.424	31.4492	106.487	167.809	74.7019	110.647	191.374	67.6034	116.62	215.005	59.8609	128.243	169.552	63.5091	129.662	199.666	54.4212	135.62	224.867	45.376	141.429	162.021	52.6518	143.029	186.786	45.8799	145.086	213.453	37.0676	153.037	146.372	42.9774	156.466	168.45	33.2853	164.524	188.446	29.4304	142.845	116.752	73.4546	146.736	93.5132	83.878	119.637	113.76	92.3708	
132	1.1	82.1062	94.8111	75.5452	73.8315	120.583	52.9198	88.6457	146.373	37.1506	115.053	144.799	29.5614	106.732	164.771	67.6197	108.939	189.237	60.7375	112.748	217.656	55.6783	121.599	169.908	62.5334	125.857	197.509	51.3968	129.691	220.34	43.3713	137.466	163.149	49.68	138.158	184.119	43.1951	137.155	211.82	35.1553	150.723	143.344	39.8295	152.409	169.049	30.7323	156.094	188.595	25.1822	143.962	116.797	71.8881	146.233	88.8151	81.0483	116.105	108.823	92.7622	
133	1.10833	80.4909	92.3243	72.6128	76.8073	118.629	49.3175	87.3724	137.802	35.1973	112.939	141.389	26.2264	98.5809	166.578	66.0143	100.316	189.657	57.1868	110.415	214.024	49.5263	120.585	170.307	55.6622	116.907	192.125	49.4176	123.374	219.441	40.4643	134.747	161.297	46.5368	136.259	183.824	38.1056	136.149	208.524	29.9645	150.055	146.614	36.4944	151.449	169.41	26.7759	150.752	187.573	23.0498	139.584	117.62	67.6487	140.46	93.8827	81.3585	111.488	109.471	88.3872	
134	1.11667	83.2707	88.7521	69.3786	72.7441	110.872	46.8406	81.2385	138.12	29.821	110.75	141.396	22.6998	95.7106	161.728	61.6331	91.4585	184.656	55.2525	98.4743	211.158	47.2414	111.161	168.714	55.2686	111.611	192.332	45.4633	114.815	221.993	36.3854	126.656	161.178	45.8066	127.185	181.942	36.722	122.818	211.296	28.7672	143.082	143.232	36.1345	141.635	168.853	26.1677	144.086	189.023	21.3755	135.926	115.676	69.0544	139.794	88.253	79.4004	112.898	106.199	86.1536	
135	1.125	79.6805	87.6391	67.6548	67.2636	108.56	43.6857	77.3991	134.321	27.2554	105.588	137.524	21.4806	85.995	157.927	59.7243	88.2121	181.263	49.8065	92.4074	205.151	43.6245	107.064	168.461	50.4911	104.695	190.238	42.3948	104.266	214.848	35.6276	120.936	163.218	42.2691	119.472	184.707	33.4732	118.023	205.749	26.0566	137.975	144.79	33.3016	138.649	169.388	23.4718	139.707	190.461	18.6188	133.176	118.76	63.6366	138.765	90.6559	80.1454	107.485	108.382	81.6846	
136	1.13333	80.0487	81.1249	64.6433	70.5192	103.263	41.5036	77.3663	126.321	26.2179	102.575	135.208	19.51	85.7053	153.753	54.5933	77.666	176.968	48.1774	83.1319	203.721	39.5587	101.398	165.129	47.2141	95.4024	185.125	40.3351	95.7243	212.016	31.9159	119.337	159.061	39.5253	115.33	180.473	30.6584	110.745	206.773	24.6076	134.736	145.943	32.3994	133.517	168.487	20.6975	130.54	190.712	17.0086	131.679	120.035	63.1352	140.653	90.9272	75.954	106.858	107.346	80.8637	
137	1.14167	80.4228	77.5292	60.6025	69.3792	99.6064	37.0261	73.9704	125.821	21.5583	98.9052	131.377	15.5183	78.5481	153.89	50.2557	71.4697	173.542	42.4688	71.736	197.387	38.171	95.0093	162.517	43.91	86.4848	187.396	36.4222	83.4628	210.42	29.2803	113.162	161.519	37.0976	105.96	182.995	29.0338	99.3984	206.38	22.216	129.429	149.708	29.1581	127.927	168.072	19.9416	128.412	192.439	11.8238	132.795	119.59	61.1321	135.52	95.5675	77.3332	101.683	105.308	77.7946	
138	1.15	81.8735	74.5718	57.1624	67.9556	92.9695	33.0291	72.0252	119.293	16.2478	97.8375	132.592	8.6283	74.8111	149.539	44.838	64.9315	170.897	37.2565	65.7226	192.511	31.9926	88.9912	160.81	40.0076	80.0941	183.389	30.0209	79.2229	204.768	24.0166	108.704	156.128	33.428	103.217	180.873	24.4567	91.8456	202.398	18.7548	126.727	149.107	26.4187	122.62	167.376	16.8556	121.416	191.675	10.8681	126.289	121.652	59.3475	138.24	98.0321	73.4447	103.351	100.834	74.3959	
139	1.15833	88.2494	71.363	53.7633	73.3271	89.075	30.3578	73.2227	113.201	12.1647	96.8418	124.528	7.29593	67.7055	143.257	41.269	59.0008	165.021	30.8995	57.189	184.814	25.6112	84.6922	155.722	35.7073	75.8772	178.235	24.4696	72.1243	200.748	18.0644	103.111	152.809	29.4289	98.5472	174.264	20.2892	87.5054	200.2	12.8754	126.823	148.71	21.4246	120.275	163.404	13.3149	116.181	188.798	6.80333	124.442	120.095	55.6348	137.979	98.0481	72.5163	104.144	100.454	71.429	
140	1.16667	90.0364	69.9071	51.6597	71.162	81.8853	26.2146	74.1078	104.12	9.6586	97.1114	121.978	4.20397	67.6642	135.01	36.8167	58.9399	159.731	24.5425	50.2047	180.102	19.5288	83.0995	148.511	31.8533	70.9237	171.103	20.5166	66.8487	195.241	13.9056	103.956	153.467	25.0785	92.4434	170.535	16.5804	83.9711	196.075	8.22975	125.854	142.981	19.3078	117.999	159.798	9.67666	109.81	186.845	2.66588	129.642	117.256	52.1091	137.943	98.4036	67.9968	101.411	97.117	69.0831	
